<svg xmlns="http://www.w3.org/2000/svg" viewBox="0 0 1176 236" width="1176" height="236">
  <defs>
    <style>
      @import url('https://fonts.googleapis.com/css2?family=Geist:wght@400;500;600&amp;family=Geist+Mono:wght@400;500;600&amp;display=swap');
      text { font-family: 'Geist', sans-serif; }
      .mono { font-family: 'Geist Mono', monospace; }
    </style>
    <linearGradient id="cka-vert-gradient" x1="0%" y1="0%" x2="0%" y2="100%">
      <stop offset="0%" stop-color="rgb(183,237,215)"/>
      <stop offset="50%" stop-color="rgb(245,245,245)"/>
      <stop offset="100%" stop-color="rgb(220,80,80)"/>
    </linearGradient>
  </defs>

  <g transform="translate(0, 24)">
    <!-- Unfreezing epoch markers -->
    <line x1="196" y1="-8" x2="196" y2="192" stroke="rgba(220,80,80,0.45)" stroke-width="1" stroke-dasharray="5,3"/>
    <text x="196" y="-12" class="mono" font-size="7" fill="#dc5050" text-anchor="middle" letter-spacing="0.06em">UNFREEZE LAYER4</text>
    <line x1="391" y1="-8" x2="391" y2="192" stroke="rgba(220,80,80,0.45)" stroke-width="1" stroke-dasharray="5,3"/>
    <text x="391" y="-12" class="mono" font-size="7" fill="#dc5050" text-anchor="middle" letter-spacing="0.06em">UNFREEZE LAYER3</text>
    <line x1="547" y1="-8" x2="547" y2="192" stroke="rgba(220,80,80,0.45)" stroke-width="1" stroke-dasharray="5,3"/>
    <text x="547" y="-12" class="mono" font-size="7" fill="#dc5050" text-anchor="middle" letter-spacing="0.06em">UNFREEZE LAYER2</text>

    <!-- Row 1: layer1 -->
    <text x="88" y="26" fill="#1c1917" font-size="11" font-weight="600" text-anchor="end">layer1</text>
    <rect x="100" y="0" width="36" height="44" rx="3" fill="rgb(183,237,215)" stroke="rgba(28,25,23,0.08)" stroke-width="0.5"/>
    <text x="118" y="26" fill="#2d3142" font-size="8" class="mono" text-anchor="middle">1.00</text>
    <rect x="139" y="0" width="36" height="44" rx="3" fill="rgb(183,237,215)" stroke="rgba(28,25,23,0.08)" stroke-width="0.5"/>
    <text x="157" y="26" fill="#2d3142" font-size="8" class="mono" text-anchor="middle">1.00</text>
    <rect x="178" y="0" width="36" height="44" rx="3" fill="rgb(183,237,215)" stroke="rgba(28,25,23,0.08)" stroke-width="0.5"/>
    <text x="196" y="26" fill="#2d3142" font-size="8" class="mono" text-anchor="middle">1.00</text>
    <rect x="217" y="0" width="36" height="44" rx="3" fill="rgb(183,237,215)" stroke="rgba(28,25,23,0.08)" stroke-width="0.5"/>
    <text x="235" y="26" fill="#2d3142" font-size="8" class="mono" text-anchor="middle">1.00</text>
    <rect x="256" y="0" width="36" height="44" rx="3" fill="rgb(183,237,215)" stroke="rgba(28,25,23,0.08)" stroke-width="0.5"/>
    <text x="274" y="26" fill="#2d3142" font-size="8" class="mono" text-anchor="middle">1.00</text>
    <rect x="295" y="0" width="36" height="44" rx="3" fill="rgb(183,237,215)" stroke="rgba(28,25,23,0.08)" stroke-width="0.5"/>
    <text x="313" y="26" fill="#2d3142" font-size="8" class="mono" text-anchor="middle">1.00</text>
    <rect x="334" y="0" width="36" height="44" rx="3" fill="rgb(183,237,215)" stroke="rgba(28,25,23,0.08)" stroke-width="0.5"/>
    <text x="352" y="26" fill="#2d3142" font-size="8" class="mono" text-anchor="middle">1.00</text>
    <rect x="373" y="0" width="36" height="44" rx="3" fill="rgb(183,237,215)" stroke="rgba(28,25,23,0.08)" stroke-width="0.5"/>
    <text x="391" y="26" fill="#2d3142" font-size="8" class="mono" text-anchor="middle">1.00</text>
    <rect x="412" y="0" width="36" height="44" rx="3" fill="rgb(183,237,215)" stroke="rgba(28,25,23,0.08)" stroke-width="0.5"/>
    <text x="430" y="26" fill="#2d3142" font-size="8" class="mono" text-anchor="middle">1.00</text>
    <rect x="451" y="0" width="36" height="44" rx="3" fill="rgb(183,237,215)" stroke="rgba(28,25,23,0.08)" stroke-width="0.5"/>
    <text x="469" y="26" fill="#2d3142" font-size="8" class="mono" text-anchor="middle">1.00</text>
    <rect x="490" y="0" width="36" height="44" rx="3" fill="rgb(183,237,215)" stroke="rgba(28,25,23,0.08)" stroke-width="0.5"/>
    <text x="508" y="26" fill="#2d3142" font-size="8" class="mono" text-anchor="middle">1.00</text>
    <rect x="529" y="0" width="36" height="44" rx="3" fill="rgb(183,237,215)" stroke="rgba(28,25,23,0.08)" stroke-width="0.5"/>
    <text x="547" y="26" fill="#2d3142" font-size="8" class="mono" text-anchor="middle">1.00</text>
    <rect x="568" y="0" width="36" height="44" rx="3" fill="rgb(183,237,215)" stroke="rgba(28,25,23,0.08)" stroke-width="0.5"/>
    <text x="586" y="26" fill="#2d3142" font-size="8" class="mono" text-anchor="middle">1.00</text>
    <rect x="607" y="0" width="36" height="44" rx="3" fill="rgb(183,237,215)" stroke="rgba(28,25,23,0.08)" stroke-width="0.5"/>
    <text x="625" y="26" fill="#2d3142" font-size="8" class="mono" text-anchor="middle">1.00</text>
    <rect x="646" y="0" width="36" height="44" rx="3" fill="rgb(183,237,215)" stroke="rgba(28,25,23,0.08)" stroke-width="0.5"/>
    <text x="664" y="26" fill="#2d3142" font-size="8" class="mono" text-anchor="middle">1.00</text>
    <rect x="685" y="0" width="36" height="44" rx="3" fill="rgb(183,237,215)" stroke="rgba(28,25,23,0.08)" stroke-width="0.5"/>
    <text x="703" y="26" fill="#2d3142" font-size="8" class="mono" text-anchor="middle">1.00</text>
    <rect x="724" y="0" width="36" height="44" rx="3" fill="rgb(183,237,215)" stroke="rgba(28,25,23,0.08)" stroke-width="0.5"/>
    <text x="742" y="26" fill="#2d3142" font-size="8" class="mono" text-anchor="middle">1.00</text>
    <rect x="763" y="0" width="36" height="44" rx="3" fill="rgb(183,237,215)" stroke="rgba(28,25,23,0.08)" stroke-width="0.5"/>
    <text x="781" y="26" fill="#2d3142" font-size="8" class="mono" text-anchor="middle">1.00</text>
    <rect x="802" y="0" width="36" height="44" rx="3" fill="rgb(183,237,215)" stroke="rgba(28,25,23,0.08)" stroke-width="0.5"/>
    <text x="820" y="26" fill="#2d3142" font-size="8" class="mono" text-anchor="middle">1.00</text>
    <rect x="841" y="0" width="36" height="44" rx="3" fill="rgb(183,237,215)" stroke="rgba(28,25,23,0.08)" stroke-width="0.5"/>
    <text x="859" y="26" fill="#2d3142" font-size="8" class="mono" text-anchor="middle">1.00</text>
    <rect x="880" y="0" width="36" height="44" rx="3" fill="rgb(183,237,215)" stroke="rgba(28,25,23,0.08)" stroke-width="0.5"/>
    <text x="898" y="26" fill="#2d3142" font-size="8" class="mono" text-anchor="middle">1.00</text>
    <rect x="919" y="0" width="36" height="44" rx="3" fill="rgb(183,237,215)" stroke="rgba(28,25,23,0.08)" stroke-width="0.5"/>
    <text x="937" y="26" fill="#2d3142" font-size="8" class="mono" text-anchor="middle">1.00</text>

    <!-- Row 2: layer2 -->
    <text x="88" y="73" fill="#1c1917" font-size="11" font-weight="600" text-anchor="end">layer2</text>
    <rect x="100" y="47" width="36" height="44" rx="3" fill="rgb(183,237,215)" stroke="rgba(28,25,23,0.08)" stroke-width="0.5"/>
    <text x="118" y="73" fill="#2d3142" font-size="8" class="mono" text-anchor="middle">1.00</text>
    <rect x="139" y="47" width="36" height="44" rx="3" fill="rgb(183,237,215)" stroke="rgba(28,25,23,0.08)" stroke-width="0.5"/>
    <text x="157" y="73" fill="#2d3142" font-size="8" class="mono" text-anchor="middle">1.00</text>
    <rect x="178" y="47" width="36" height="44" rx="3" fill="rgb(183,237,215)" stroke="rgba(28,25,23,0.08)" stroke-width="0.5"/>
    <text x="196" y="73" fill="#2d3142" font-size="8" class="mono" text-anchor="middle">1.00</text>
    <rect x="217" y="47" width="36" height="44" rx="3" fill="rgb(183,237,215)" stroke="rgba(28,25,23,0.08)" stroke-width="0.5"/>
    <text x="235" y="73" fill="#2d3142" font-size="8" class="mono" text-anchor="middle">1.00</text>
    <rect x="256" y="47" width="36" height="44" rx="3" fill="rgb(183,237,215)" stroke="rgba(28,25,23,0.08)" stroke-width="0.5"/>
    <text x="274" y="73" fill="#2d3142" font-size="8" class="mono" text-anchor="middle">1.00</text>
    <rect x="295" y="47" width="36" height="44" rx="3" fill="rgb(183,237,215)" stroke="rgba(28,25,23,0.08)" stroke-width="0.5"/>
    <text x="313" y="73" fill="#2d3142" font-size="8" class="mono" text-anchor="middle">1.00</text>
    <rect x="334" y="47" width="36" height="44" rx="3" fill="rgb(183,237,215)" stroke="rgba(28,25,23,0.08)" stroke-width="0.5"/>
    <text x="352" y="73" fill="#2d3142" font-size="8" class="mono" text-anchor="middle">1.00</text>
    <rect x="373" y="47" width="36" height="44" rx="3" fill="rgb(183,237,215)" stroke="rgba(28,25,23,0.08)" stroke-width="0.5"/>
    <text x="391" y="73" fill="#2d3142" font-size="8" class="mono" text-anchor="middle">1.00</text>
    <rect x="412" y="47" width="36" height="44" rx="3" fill="rgb(183,237,215)" stroke="rgba(28,25,23,0.08)" stroke-width="0.5"/>
    <text x="430" y="73" fill="#2d3142" font-size="8" class="mono" text-anchor="middle">1.00</text>
    <rect x="451" y="47" width="36" height="44" rx="3" fill="rgb(183,237,215)" stroke="rgba(28,25,23,0.08)" stroke-width="0.5"/>
    <text x="469" y="73" fill="#2d3142" font-size="8" class="mono" text-anchor="middle">1.00</text>
    <rect x="490" y="47" width="36" height="44" rx="3" fill="rgb(183,237,215)" stroke="rgba(28,25,23,0.08)" stroke-width="0.5"/>
    <text x="508" y="73" fill="#2d3142" font-size="8" class="mono" text-anchor="middle">1.00</text>
    <rect x="529" y="47" width="36" height="44" rx="3" fill="rgb(183,237,215)" stroke="rgba(28,25,23,0.08)" stroke-width="0.5"/>
    <text x="547" y="73" fill="#2d3142" font-size="8" class="mono" text-anchor="middle">1.00</text>
    <rect x="568" y="47" width="36" height="44" rx="3" fill="rgb(183,237,215)" stroke="rgba(28,25,23,0.08)" stroke-width="0.5"/>
    <text x="586" y="73" fill="#2d3142" font-size="8" class="mono" text-anchor="middle">1.00</text>
    <rect x="607" y="47" width="36" height="44" rx="3" fill="rgb(183,237,215)" stroke="rgba(28,25,23,0.08)" stroke-width="0.5"/>
    <text x="625" y="73" fill="#2d3142" font-size="8" class="mono" text-anchor="middle">1.00</text>
    <rect x="646" y="47" width="36" height="44" rx="3" fill="rgb(183,237,215)" stroke="rgba(28,25,23,0.08)" stroke-width="0.5"/>
    <text x="664" y="73" fill="#2d3142" font-size="8" class="mono" text-anchor="middle">1.00</text>
    <rect x="685" y="47" width="36" height="44" rx="3" fill="rgb(183,237,215)" stroke="rgba(28,25,23,0.08)" stroke-width="0.5"/>
    <text x="703" y="73" fill="#2d3142" font-size="8" class="mono" text-anchor="middle">1.00</text>
    <rect x="724" y="47" width="36" height="44" rx="3" fill="rgb(183,237,215)" stroke="rgba(28,25,23,0.08)" stroke-width="0.5"/>
    <text x="742" y="73" fill="#2d3142" font-size="8" class="mono" text-anchor="middle">1.00</text>
    <rect x="763" y="47" width="36" height="44" rx="3" fill="rgb(183,237,215)" stroke="rgba(28,25,23,0.08)" stroke-width="0.5"/>
    <text x="781" y="73" fill="#2d3142" font-size="8" class="mono" text-anchor="middle">1.00</text>
    <rect x="802" y="47" width="36" height="44" rx="3" fill="rgb(184,237,215)" stroke="rgba(28,25,23,0.08)" stroke-width="0.5"/>
    <text x="820" y="73" fill="#2d3142" font-size="8" class="mono" text-anchor="middle">1.00</text>
    <rect x="841" y="47" width="36" height="44" rx="3" fill="rgb(184,237,215)" stroke="rgba(28,25,23,0.08)" stroke-width="0.5"/>
    <text x="859" y="73" fill="#2d3142" font-size="8" class="mono" text-anchor="middle">1.00</text>
    <rect x="880" y="47" width="36" height="44" rx="3" fill="rgb(184,237,215)" stroke="rgba(28,25,23,0.08)" stroke-width="0.5"/>
    <text x="898" y="73" fill="#2d3142" font-size="8" class="mono" text-anchor="middle">1.00</text>
    <rect x="919" y="47" width="36" height="44" rx="3" fill="rgb(184,237,215)" stroke="rgba(28,25,23,0.08)" stroke-width="0.5"/>
    <text x="937" y="73" fill="#2d3142" font-size="8" class="mono" text-anchor="middle">1.00</text>

    <!-- Row 3: layer3 -->
    <text x="88" y="120" fill="#1c1917" font-size="11" font-weight="600" text-anchor="end">layer3</text>
    <rect x="100" y="94" width="36" height="44" rx="3" fill="rgb(183,237,215)" stroke="rgba(28,25,23,0.08)" stroke-width="0.5"/>
    <text x="118" y="120" fill="#2d3142" font-size="8" class="mono" text-anchor="middle">1.00</text>
    <rect x="139" y="94" width="36" height="44" rx="3" fill="rgb(183,237,215)" stroke="rgba(28,25,23,0.08)" stroke-width="0.5"/>
    <text x="157" y="120" fill="#2d3142" font-size="8" class="mono" text-anchor="middle">1.00</text>
    <rect x="178" y="94" width="36" height="44" rx="3" fill="rgb(183,237,215)" stroke="rgba(28,25,23,0.08)" stroke-width="0.5"/>
    <text x="196" y="120" fill="#2d3142" font-size="8" class="mono" text-anchor="middle">1.00</text>
    <rect x="217" y="94" width="36" height="44" rx="3" fill="rgb(183,237,215)" stroke="rgba(28,25,23,0.08)" stroke-width="0.5"/>
    <text x="235" y="120" fill="#2d3142" font-size="8" class="mono" text-anchor="middle">1.00</text>
    <rect x="256" y="94" width="36" height="44" rx="3" fill="rgb(183,237,215)" stroke="rgba(28,25,23,0.08)" stroke-width="0.5"/>
    <text x="274" y="120" fill="#2d3142" font-size="8" class="mono" text-anchor="middle">1.00</text>
    <rect x="295" y="94" width="36" height="44" rx="3" fill="rgb(183,237,215)" stroke="rgba(28,25,23,0.08)" stroke-width="0.5"/>
    <text x="313" y="120" fill="#2d3142" font-size="8" class="mono" text-anchor="middle">1.00</text>
    <rect x="334" y="94" width="36" height="44" rx="3" fill="rgb(183,237,215)" stroke="rgba(28,25,23,0.08)" stroke-width="0.5"/>
    <text x="352" y="120" fill="#2d3142" font-size="8" class="mono" text-anchor="middle">1.00</text>
    <rect x="373" y="94" width="36" height="44" rx="3" fill="rgb(189,237,218)" stroke="rgba(28,25,23,0.08)" stroke-width="0.5"/>
    <text x="391" y="120" fill="#2d3142" font-size="8" class="mono" text-anchor="middle">0.97</text>
    <rect x="412" y="94" width="36" height="44" rx="3" fill="rgb(194,238,220)" stroke="rgba(28,25,23,0.08)" stroke-width="0.5"/>
    <text x="430" y="120" fill="#2d3142" font-size="8" class="mono" text-anchor="middle">0.95</text>
    <rect x="451" y="94" width="36" height="44" rx="3" fill="rgb(191,238,219)" stroke="rgba(28,25,23,0.08)" stroke-width="0.5"/>
    <text x="469" y="120" fill="#2d3142" font-size="8" class="mono" text-anchor="middle">0.97</text>
    <rect x="490" y="94" width="36" height="44" rx="3" fill="rgb(195,238,220)" stroke="rgba(28,25,23,0.08)" stroke-width="0.5"/>
    <text x="508" y="120" fill="#2d3142" font-size="8" class="mono" text-anchor="middle">0.95</text>
    <rect x="529" y="94" width="36" height="44" rx="3" fill="rgb(198,239,222)" stroke="rgba(28,25,23,0.08)" stroke-width="0.5"/>
    <text x="547" y="120" fill="#2d3142" font-size="8" class="mono" text-anchor="middle">0.94</text>
    <rect x="568" y="94" width="36" height="44" rx="3" fill="rgb(195,238,221)" stroke="rgba(28,25,23,0.08)" stroke-width="0.5"/>
    <text x="586" y="120" fill="#2d3142" font-size="8" class="mono" text-anchor="middle">0.95</text>
    <rect x="607" y="94" width="36" height="44" rx="3" fill="rgb(198,239,222)" stroke="rgba(28,25,23,0.08)" stroke-width="0.5"/>
    <text x="625" y="120" fill="#2d3142" font-size="8" class="mono" text-anchor="middle">0.94</text>
    <rect x="646" y="94" width="36" height="44" rx="3" fill="rgb(199,239,223)" stroke="rgba(28,25,23,0.08)" stroke-width="0.5"/>
    <text x="664" y="120" fill="#2d3142" font-size="8" class="mono" text-anchor="middle">0.93</text>
    <rect x="685" y="94" width="36" height="44" rx="3" fill="rgb(196,238,221)" stroke="rgba(28,25,23,0.08)" stroke-width="0.5"/>
    <text x="703" y="120" fill="#2d3142" font-size="8" class="mono" text-anchor="middle">0.94</text>
    <rect x="724" y="94" width="36" height="44" rx="3" fill="rgb(201,239,224)" stroke="rgba(28,25,23,0.08)" stroke-width="0.5"/>
    <text x="742" y="120" fill="#2d3142" font-size="8" class="mono" text-anchor="middle">0.92</text>
    <rect x="763" y="94" width="36" height="44" rx="3" fill="rgb(203,239,225)" stroke="rgba(28,25,23,0.08)" stroke-width="0.5"/>
    <text x="781" y="120" fill="#2d3142" font-size="8" class="mono" text-anchor="middle">0.92</text>
    <rect x="802" y="94" width="36" height="44" rx="3" fill="rgb(207,240,226)" stroke="rgba(28,25,23,0.08)" stroke-width="0.5"/>
    <text x="820" y="120" fill="#2d3142" font-size="8" class="mono" text-anchor="middle">0.90</text>
    <rect x="841" y="94" width="36" height="44" rx="3" fill="rgb(203,239,224)" stroke="rgba(28,25,23,0.08)" stroke-width="0.5"/>
    <text x="859" y="120" fill="#2d3142" font-size="8" class="mono" text-anchor="middle">0.92</text>
    <rect x="880" y="94" width="36" height="44" rx="3" fill="rgb(204,239,225)" stroke="rgba(28,25,23,0.08)" stroke-width="0.5"/>
    <text x="898" y="120" fill="#2d3142" font-size="8" class="mono" text-anchor="middle">0.91</text>
    <rect x="919" y="94" width="36" height="44" rx="3" fill="rgb(202,239,224)" stroke="rgba(28,25,23,0.08)" stroke-width="0.5"/>
    <text x="937" y="120" fill="#2d3142" font-size="8" class="mono" text-anchor="middle">0.92</text>

    <!-- Row 4: layer4 -->
    <text x="88" y="167" fill="#1c1917" font-size="11" font-weight="600" text-anchor="end">layer4</text>
    <rect x="100" y="141" width="36" height="44" rx="3" fill="rgb(183,237,215)" stroke="rgba(28,25,23,0.08)" stroke-width="0.5"/>
    <text x="118" y="167" fill="#2d3142" font-size="8" class="mono" text-anchor="middle">1.00</text>
    <rect x="139" y="141" width="36" height="44" rx="3" fill="rgb(183,237,215)" stroke="rgba(28,25,23,0.08)" stroke-width="0.5"/>
    <text x="157" y="167" fill="#2d3142" font-size="8" class="mono" text-anchor="middle">1.00</text>
    <rect x="178" y="141" width="36" height="44" rx="3" fill="rgb(201,239,224)" stroke="rgba(28,25,23,0.08)" stroke-width="0.5"/>
    <text x="196" y="167" fill="#2d3142" font-size="8" class="mono" text-anchor="middle">0.92</text>
    <rect x="217" y="141" width="36" height="44" rx="3" fill="rgb(221,241,233)" stroke="rgba(28,25,23,0.08)" stroke-width="0.5"/>
    <text x="235" y="167" fill="#1c1917" font-size="8" class="mono" text-anchor="middle">0.85</text>
    <rect x="256" y="141" width="36" height="44" rx="3" fill="rgb(235,243,240)" stroke="rgba(28,25,23,0.08)" stroke-width="0.5"/>
    <text x="274" y="167" fill="#1c1917" font-size="8" class="mono" text-anchor="middle">0.79</text>
    <rect x="295" y="141" width="36" height="44" rx="3" fill="rgb(244,241,241)" stroke="rgba(28,25,23,0.08)" stroke-width="0.5"/>
    <text x="313" y="167" fill="#1c1917" font-size="8" class="mono" text-anchor="middle">0.75</text>
    <rect x="334" y="141" width="36" height="44" rx="3" fill="rgb(241,222,222)" stroke="rgba(28,25,23,0.08)" stroke-width="0.5"/>
    <text x="352" y="167" fill="#1c1917" font-size="8" class="mono" text-anchor="middle">0.72</text>
    <rect x="373" y="141" width="36" height="44" rx="3" fill="rgb(238,203,203)" stroke="rgba(28,25,23,0.08)" stroke-width="0.5"/>
    <text x="391" y="167" fill="#1c1917" font-size="8" class="mono" text-anchor="middle">0.69</text>
    <rect x="412" y="141" width="36" height="44" rx="3" fill="rgb(235,182,182)" stroke="rgba(28,25,23,0.08)" stroke-width="0.5"/>
    <text x="430" y="167" fill="#1c1917" font-size="8" class="mono" text-anchor="middle">0.66</text>
    <rect x="451" y="141" width="36" height="44" rx="3" fill="rgb(233,170,170)" stroke="rgba(28,25,23,0.08)" stroke-width="0.5"/>
    <text x="469" y="167" fill="#1c1917" font-size="8" class="mono" text-anchor="middle">0.64</text>
    <rect x="490" y="141" width="36" height="44" rx="3" fill="rgb(232,165,165)" stroke="rgba(28,25,23,0.08)" stroke-width="0.5"/>
    <text x="508" y="167" fill="#1c1917" font-size="8" class="mono" text-anchor="middle">0.63</text>
    <rect x="529" y="141" width="36" height="44" rx="3" fill="rgb(232,165,165)" stroke="rgba(28,25,23,0.08)" stroke-width="0.5"/>
    <text x="547" y="167" fill="#1c1917" font-size="8" class="mono" text-anchor="middle">0.63</text>
    <rect x="568" y="141" width="36" height="44" rx="3" fill="rgb(232,162,162)" stroke="rgba(28,25,23,0.08)" stroke-width="0.5"/>
    <text x="586" y="167" fill="#1c1917" font-size="8" class="mono" text-anchor="middle">0.63</text>
    <rect x="607" y="141" width="36" height="44" rx="3" fill="rgb(231,155,155)" stroke="rgba(28,25,23,0.08)" stroke-width="0.5"/>
    <text x="625" y="167" fill="#1c1917" font-size="8" class="mono" text-anchor="middle">0.61</text>
    <rect x="646" y="141" width="36" height="44" rx="3" fill="rgb(231,154,154)" stroke="rgba(28,25,23,0.08)" stroke-width="0.5"/>
    <text x="664" y="167" fill="#1c1917" font-size="8" class="mono" text-anchor="middle">0.61</text>
    <rect x="685" y="141" width="36" height="44" rx="3" fill="rgb(230,151,151)" stroke="rgba(28,25,23,0.08)" stroke-width="0.5"/>
    <text x="703" y="167" fill="#1c1917" font-size="8" class="mono" text-anchor="middle">0.61</text>
    <rect x="724" y="141" width="36" height="44" rx="3" fill="rgb(229,145,145)" stroke="rgba(28,25,23,0.08)" stroke-width="0.5"/>
    <text x="742" y="167" fill="#ffffff" font-size="8" class="mono" text-anchor="middle">0.60</text>
    <rect x="763" y="141" width="36" height="44" rx="3" fill="rgb(228,136,136)" stroke="rgba(28,25,23,0.08)" stroke-width="0.5"/>
    <text x="781" y="167" fill="#ffffff" font-size="8" class="mono" text-anchor="middle">0.59</text>
    <rect x="802" y="141" width="36" height="44" rx="3" fill="rgb(228,133,133)" stroke="rgba(28,25,23,0.08)" stroke-width="0.5"/>
    <text x="820" y="167" fill="#ffffff" font-size="8" class="mono" text-anchor="middle">0.58</text>
    <rect x="841" y="141" width="36" height="44" rx="3" fill="rgb(227,127,127)" stroke="rgba(28,25,23,0.08)" stroke-width="0.5"/>
    <text x="859" y="167" fill="#ffffff" font-size="8" class="mono" text-anchor="middle">0.57</text>
    <rect x="880" y="141" width="36" height="44" rx="3" fill="rgb(227,127,127)" stroke="rgba(28,25,23,0.08)" stroke-width="0.5"/>
    <text x="898" y="167" fill="#ffffff" font-size="8" class="mono" text-anchor="middle">0.57</text>
    <rect x="919" y="141" width="36" height="44" rx="3" fill="rgb(226,124,124)" stroke="rgba(28,25,23,0.08)" stroke-width="0.5"/>
    <text x="937" y="167" fill="#ffffff" font-size="8" class="mono" text-anchor="middle">0.57</text>

    <!-- Epoch labels -->
    <text x="118" y="204" fill="#78716c" font-size="8" class="mono" text-anchor="middle">1</text>
    <text x="157" y="204" fill="#78716c" font-size="8" class="mono" text-anchor="middle">2</text>
    <text x="196" y="204" fill="#78716c" font-size="8" class="mono" text-anchor="middle">3</text>
    <text x="235" y="204" fill="#78716c" font-size="8" class="mono" text-anchor="middle">4</text>
    <text x="274" y="204" fill="#78716c" font-size="8" class="mono" text-anchor="middle">5</text>
    <text x="313" y="204" fill="#78716c" font-size="8" class="mono" text-anchor="middle">6</text>
    <text x="352" y="204" fill="#78716c" font-size="8" class="mono" text-anchor="middle">7</text>
    <text x="391" y="204" fill="#78716c" font-size="8" class="mono" text-anchor="middle">8</text>
    <text x="430" y="204" fill="#78716c" font-size="8" class="mono" text-anchor="middle">9</text>
    <text x="469" y="204" fill="#78716c" font-size="8" class="mono" text-anchor="middle">10</text>
    <text x="508" y="204" fill="#78716c" font-size="8" class="mono" text-anchor="middle">11</text>
    <text x="547" y="204" fill="#78716c" font-size="8" class="mono" text-anchor="middle">12</text>
    <text x="586" y="204" fill="#78716c" font-size="8" class="mono" text-anchor="middle">13</text>
    <text x="625" y="204" fill="#78716c" font-size="8" class="mono" text-anchor="middle">14</text>
    <text x="664" y="204" fill="#78716c" font-size="8" class="mono" text-anchor="middle">15</text>
    <text x="703" y="204" fill="#78716c" font-size="8" class="mono" text-anchor="middle">16</text>
    <text x="742" y="204" fill="#78716c" font-size="8" class="mono" text-anchor="middle">17</text>
    <text x="781" y="204" fill="#78716c" font-size="8" class="mono" text-anchor="middle">18</text>
    <text x="820" y="204" fill="#78716c" font-size="8" class="mono" text-anchor="middle">19</text>
    <text x="859" y="204" fill="#78716c" font-size="8" class="mono" text-anchor="middle">20</text>
    <text x="898" y="204" fill="#78716c" font-size="8" class="mono" text-anchor="middle">21</text>
    <text x="937" y="204" fill="#78716c" font-size="8" class="mono" text-anchor="middle">22</text>
    <text x="527" y="220" font-weight="600" font-size="11" fill="#1c1917" text-anchor="middle">Epoch</text>

    <!-- Component 2: Vertical Color Scale Bar -->
    <rect x="979" y="0" width="12" height="185" rx="3" fill="url(#cka-vert-gradient)" stroke="rgba(28,25,23,0.12)" stroke-width="0.5"/>
    <text x="985" y="-18" class="mono" font-size="7" fill="#78716c" text-anchor="middle" letter-spacing="0.10em" font-weight="600">CKA</text>
    <text x="985" y="-5" class="mono" font-size="8" fill="#2d3142" text-anchor="middle" font-weight="600">1.00</text>
    <text x="985" y="197" class="mono" font-size="8" fill="#dc5050" text-anchor="middle" font-weight="600">0.50</text>

    <!-- Component 3: FINAL CKA Side Table -->
    <text x="1085" y="-18" class="mono" font-size="8" fill="#78716c" text-anchor="middle" letter-spacing="0.10em" font-weight="600">FINAL CKA</text>
    <text x="1037" y="-5" class="mono" font-size="8" fill="#78716c" text-anchor="middle" font-weight="600">V1</text>
    <text x="1084" y="-5" class="mono" font-size="8" fill="#78716c" text-anchor="middle" font-weight="600">V2</text>
    <text x="1131" y="-5" class="mono" font-size="8" fill="#eb6c36" text-anchor="middle" font-weight="600">V3</text>

    <!-- Row 1 Side Table (layer1) -->
    <rect x="1015" y="0" width="44" height="44" rx="3" fill="rgb(183,237,215)" stroke="rgba(28,25,23,0.08)" stroke-width="0.5"/>
    <text x="1037" y="26" fill="#2d3142" font-size="8" class="mono" text-anchor="middle">1.00</text>
    <rect x="1062" y="0" width="44" height="44" rx="3" fill="rgb(183,237,215)" stroke="rgba(28,25,23,0.08)" stroke-width="0.5"/>
    <text x="1084" y="26" fill="#2d3142" font-size="8" class="mono" text-anchor="middle">1.00</text>
    <rect x="1109" y="0" width="44" height="44" rx="3" fill="rgb(183,237,215)" stroke="rgba(28,25,23,0.08)" stroke-width="0.5"/>
    <text x="1131" y="26" fill="#2d3142" font-size="8" class="mono" text-anchor="middle">1.00</text>

    <!-- Row 2 Side Table (layer2) -->
    <rect x="1015" y="47" width="44" height="44" rx="3" fill="rgb(183,237,215)" stroke="rgba(28,25,23,0.08)" stroke-width="0.5"/>
    <text x="1037" y="73" fill="#2d3142" font-size="8" class="mono" text-anchor="middle">1.00</text>
    <rect x="1062" y="47" width="44" height="44" rx="3" fill="rgb(183,237,215)" stroke="rgba(28,25,23,0.08)" stroke-width="0.5"/>
    <text x="1084" y="73" fill="#2d3142" font-size="8" class="mono" text-anchor="middle">1.00</text>
    <rect x="1109" y="47" width="44" height="44" rx="3" fill="rgb(184,237,215)" stroke="rgba(28,25,23,0.08)" stroke-width="0.5"/>
    <text x="1131" y="73" fill="#2d3142" font-size="8" class="mono" text-anchor="middle">1.00</text>

    <!-- Row 3 Side Table (layer3) -->
    <rect x="1015" y="94" width="44" height="44" rx="3" fill="rgb(183,237,215)" stroke="rgba(28,25,23,0.08)" stroke-width="0.5"/>
    <text x="1037" y="120" fill="#2d3142" font-size="8" class="mono" text-anchor="middle">1.00</text>
    <rect x="1062" y="94" width="44" height="44" rx="3" fill="rgb(183,237,215)" stroke="rgba(28,25,23,0.08)" stroke-width="0.5"/>
    <text x="1084" y="120" fill="#2d3142" font-size="8" class="mono" text-anchor="middle">1.00</text>
    <rect x="1109" y="94" width="44" height="44" rx="3" fill="rgb(207,240,226)" stroke="rgba(28,25,23,0.08)" stroke-width="0.5"/>
    <text x="1131" y="120" fill="#2d3142" font-size="8" class="mono" text-anchor="middle">0.90</text>

    <!-- Row 4 Side Table (layer4) -->
    <rect x="1015" y="141" width="44" height="44" rx="3" fill="rgb(183,237,215)" stroke="rgba(28,25,23,0.08)" stroke-width="0.5"/>
    <text x="1037" y="167" fill="#2d3142" font-size="8" class="mono" text-anchor="middle">1.00</text>
    <rect x="1062" y="141" width="44" height="44" rx="3" fill="rgb(232,160,160)" stroke="rgba(28,25,23,0.08)" stroke-width="0.5"/>
    <text x="1084" y="167" fill="#1c1917" font-size="8" class="mono" text-anchor="middle">0.62</text>
    <rect x="1109" y="141" width="44" height="44" rx="3" fill="rgb(228,133,133)" stroke="rgba(28,25,23,0.08)" stroke-width="0.5"/>
    <text x="1131" y="167" fill="#ffffff" font-size="8" class="mono" text-anchor="middle">0.58</text>
  </g>
</svg>
